<svg width="498" height="109" viewBox="0 0 498 109" fill="none" xmlns="http://www.w3.org/2000/svg">
<path d="M16.5801 75.1066C21.5 72 117.29 52.9381 150.751 56.2843C192.578 60.467 283.293 75.1066 333.811 42.6904C368.576 20.3824 416.921 4 416.921 4C416.921 4 471.5 -7.50002 482 11.9999C492.5 31.4999 494.795 81.3965 492.5 107H2.99999C2.99999 107 0.758248 94.8694 2.99999 87.6549C6.00002 78 16.5801 75.1066 16.5801 75.1066Z" fill="#FFC926"/>
<path d="M48.5 77.0001C76.8333 69.6667 141.2 55.8 172 59C210.5 63 300 80.5001 346.5 49.5C378.5 28.1667 442.092 31.7543 450.5 33C491 39 499.833 76.1666 497 109H0V90.5L48.5 77.0001Z" fill="#F3F3F3"/>
</svg>

